<svg width="250" height="151" viewBox="0 0 250 151" fill="none" xmlns="http://www.w3.org/2000/svg">
<g clip-path="url(#clip0_1_1095)">
<rect x="51.4846" y="126.685" width="20.0684" height="73.2932" rx="10" transform="rotate(-32.698 51.4846 126.685)" fill="#9A48F1" stroke="#271A58" stroke-linecap="round"/>
<path d="M115.926 25.6334C94.0428 62.6057 77.6857 82.7909 47.1525 108.879C40.5581 114.514 38.7648 124.042 43.1045 131.551C47.301 138.814 56.0249 142.082 64.0399 139.61C99.1009 128.797 125.412 124.767 171.636 123.461L115.926 25.6334Z" fill="#9A48F1" stroke="#271A58" stroke-linecap="round"/>
<path d="M42.729 130.902L43.4341 132.122C47.4958 139.151 55.7601 142.591 63.6098 140.521L107.661 128.902C107.661 128.902 90.936 120.691 84.2258 108.035C77.4504 95.2572 75.9925 82.3484 80.2244 76.766L46.0204 108.748C39.9032 114.468 38.5389 123.65 42.729 130.902Z" fill="#D9B6FF" stroke="#271A58" stroke-linecap="round"/>
<path d="M172.132 58.7551C180.581 74.6901 185.196 90.6978 185.845 103.684C186.495 116.714 183.154 126.505 175.948 130.326C168.742 134.147 158.762 131.419 148.342 123.569C137.957 115.745 127.296 102.943 118.847 87.0084C110.398 71.0735 105.783 55.0658 105.134 42.08C104.484 29.0499 107.825 19.2585 115.031 15.4376C122.237 11.6167 132.217 14.3449 142.637 22.1949C153.022 30.0182 163.683 42.8202 172.132 58.7551Z" fill="#AD61FF" stroke="#271A58"/>
<path d="M165.056 62.5074C172.376 76.3119 176.758 89.9736 177.94 100.89C178.531 106.349 178.319 111.096 177.293 114.821C176.267 118.545 174.443 121.203 171.841 122.582C169.24 123.962 166.016 123.98 162.358 122.74C158.699 121.499 154.651 119.011 150.463 115.459C142.091 108.355 133.241 97.0621 125.922 83.2575C118.602 69.453 114.22 55.7913 113.038 44.875C112.447 39.4154 112.66 34.6689 113.686 30.9436C114.711 27.2195 116.535 24.562 119.137 23.1825C121.739 21.8031 124.962 21.7845 128.62 23.0251C132.279 24.266 136.327 26.7536 140.515 30.3063C148.887 37.4098 157.737 48.7028 165.056 62.5074Z" fill="#D9B6FF" stroke="#271A58"/>
<path d="M137.836 90.9404L137.836 90.9403L137.826 90.9459L132.192 94.3361C130.661 91.8826 128.191 87.7461 125.848 83.4565C123.466 79.0962 121.237 74.6185 120.243 71.5897L126.303 68.4585C127.714 67.8489 129.791 67.3498 131.411 67.2951C138.359 67.0601 144.182 72.5024 144.417 79.4506C144.58 84.2659 141.767 88.6892 137.836 90.9404Z" fill="#E9D4FF" stroke="#271A58"/>
<rect x="80.6294" y="146.933" width="7.72538" height="16.4508" rx="3.86269" transform="rotate(-32.698 80.6294 146.933)" fill="#D9B6FF" stroke="#271A58"/>
<path d="M210.762 25.924L160.255 73.3532L197.657 51.7672L195.157 70.8918L269.014 30.8377L207.22 53.0173L210.762 25.924Z" fill="#F9EBFF" stroke="#271A58" stroke-linecap="round"/>
<path d="M189.235 -11.5985L171.594 35.0002L189.983 6.59864L194.12 20.7348L220.236 -22.9727L197.01 4.54224L189.235 -11.5985Z" fill="#F9EBFF" stroke="#271A58" stroke-linecap="round"/>
<path d="M30.072 65.5418C34.9819 78.9167 54.6612 73.7475 65.4548 69.073C73.7724 45.2331 67.1351 28.987 54.9379 31.9557C45.1802 34.3307 44.9435 44.5547 46.0449 49.3698C39.72 48.9089 25.4805 53.0341 30.072 65.5418Z" fill="#AD61FF" stroke="#271A58" stroke-linecap="round"/>
<path d="M35.724 57.3914C34.9142 59.5746 34.5448 64.6587 39.5454 67.5302" stroke="#271A58" stroke-linecap="round"/>
<rect opacity="0.8" y="0.509277" width="250" height="150" fill="url(#paint0_linear_1_1095)"/>
<path d="M53.2266 84.5093H50.8266V66.5093H61.2906V84.5093H58.8906V68.7173H53.2266V84.5093ZM74.5143 84.5093H72.1143V74.7173H67.8183C67.7703 77.5253 67.6503 79.4213 67.4583 80.7173C66.9543 83.7173 65.8983 84.5093 63.9783 84.5093H63.5463V82.3013H63.7383C64.3863 82.3013 64.9143 81.9173 65.1543 81.0053C65.4423 79.9733 65.6103 77.9093 65.6343 72.5093H74.5143V84.5093ZM88.8102 79.3253H79.4022C79.6902 81.4133 81.0342 82.6373 83.0502 82.6373C84.5142 82.6373 85.4742 81.9893 85.9542 80.9093H88.5462C87.8022 83.3813 85.7142 84.7493 82.9542 84.7493C79.5462 84.7493 77.0502 82.1813 77.0502 78.5093C77.0502 74.8373 79.5462 72.2693 82.9542 72.2693C86.3622 72.2693 88.8582 74.8373 88.8582 78.5093C88.8582 78.7973 88.8342 79.0613 88.8102 79.3253ZM82.9542 74.3813C81.0102 74.3813 79.7142 75.5813 79.4262 77.5973H86.4822C86.1942 75.5813 84.8742 74.3813 82.9542 74.3813ZM98.4919 66.5093H100.412C100.412 68.7653 98.9479 70.1093 96.7879 70.1093C94.6519 70.1093 93.1879 68.7653 93.1879 66.5093H95.1079C95.1079 67.8533 95.8999 68.4053 96.7879 68.4053C97.7479 68.4053 98.4919 67.8533 98.4919 66.5093ZM102.26 84.5093H99.9559V74.9333L94.4599 84.5093H91.4119V72.5093H93.7159V82.0853L99.2119 72.5093H102.26V84.5093ZM115.475 84.5093H113.075V74.7173H108.779C108.731 77.5253 108.611 79.4213 108.419 80.7173C107.915 83.7173 106.859 84.5093 104.939 84.5093H104.507V82.3013H104.699C105.347 82.3013 105.875 81.9173 106.115 81.0053C106.403 79.9733 106.571 77.9093 106.595 72.5093H115.475V84.5093ZM129.747 84.5093H127.443V74.9333L121.947 84.5093H118.899V72.5093H121.203V82.0853L126.699 72.5093H129.747V84.5093ZM141.689 77.2853C141.449 75.4613 139.985 74.4773 138.257 74.4773C136.217 74.4773 134.681 76.0853 134.681 78.5093C134.681 80.9333 136.217 82.5413 138.257 82.5413C140.009 82.5413 141.497 81.4613 141.737 79.4693H144.233C144.041 82.6373 141.521 84.7493 138.257 84.7493C134.825 84.7493 132.281 82.1813 132.281 78.5093C132.281 74.8373 134.825 72.2693 138.257 72.2693C141.425 72.2693 143.897 74.2853 144.185 77.2853H141.689ZM151.282 84.5093H148.882V74.7173H144.994V72.5093H155.17V74.7173H151.282V84.5093ZM161.325 82.3013H162.501C163.101 81.1733 163.581 79.5413 163.629 72.5093H172.869V82.3013H174.549V87.7493H172.341V84.5093H163.533V87.7493H161.325V82.3013ZM165.549 79.4453C165.357 80.8373 165.165 81.7013 164.925 82.3013H170.469V74.7173H165.813C165.789 76.8773 165.693 78.3653 165.549 79.4453ZM179.269 84.5093H176.869V72.5093H179.269V77.3573H185.029V72.5093H187.429V84.5093H185.029V79.5413H179.269V84.5093ZM190.599 76.1573C190.599 73.5413 192.615 72.5093 195.015 72.5093H200.175V84.5093H197.775V79.2533H197.751L192.567 84.5093H189.759L194.463 79.8533C192.447 79.7333 190.599 78.4853 190.599 76.1573ZM195.423 78.1493H197.775V74.3333H195.423C193.911 74.3333 192.999 74.9573 192.999 76.1813C192.999 77.5493 193.911 78.1493 195.423 78.1493Z" fill="white"/>
</g>
<defs>
<linearGradient id="paint0_linear_1_1095" x1="125" y1="0.509277" x2="125" y2="150.509" gradientUnits="userSpaceOnUse">
<stop stop-color="#271A58"/>
<stop offset="1" stop-color="#7868CC"/>
</linearGradient>
<clipPath id="clip0_1_1095">
<rect width="250" height="150" fill="white" transform="translate(0 0.509277)"/>
</clipPath>
</defs>
</svg>
