<svg width="250" height="151" viewBox="0 0 250 151" fill="none" xmlns="http://www.w3.org/2000/svg">
<g clip-path="url(#clip0_1_1112)">
<rect width="250" height="150" transform="translate(0 0.509277)" fill="#271A58"/>
<path d="M311.596 219.173C309.099 159.034 262.925 123.465 222.819 105.196L211.028 88.7813L96.4734 61.9633L59.2518 107.508C27.9024 122.859 9.96978 142.186 4.92213 149.931L-54.8405 174.437C-72.5959 180.263 -78.3449 204.952 -78.9999 216.569H-75.2689C-77.2055 231.483 -72.6703 264.231 -39.0369 258.504C-5.40344 252.777 33.099 224.38 48.7327 208.307V291.188H259V273.806C289.396 271.669 313.16 256.842 311.596 219.173Z" fill="#F9EBFF"/>
<path d="M83.295 51.6755L132.423 -3.23218L186.637 16.997L196.694 57.802L182.591 102.537C180.094 107.716 176.619 111.323 175.193 112.479C170.662 123.391 162.362 132.592 158.779 135.829C139.451 128.338 129.071 113.288 126.296 106.699C118.436 100.873 112.695 92.9429 110.807 89.7063L83.295 87.0476V51.6755Z" fill="#E9D4FF"/>
<path d="M132.145 15.247C145.256 12.9566 145.467 7.00667 143.299 2.88552C146.681 3.01567 154.952 5.35043 157.449 12.0137C160.571 20.3428 160.5 22.6652 167.654 25.7886C174.807 28.9119 179.434 33.4299 182.591 42.6751C191.284 72.0951 186.015 94.8374 182.294 102.531C184.091 105.065 187.176 111.851 185.15 118.724C184.411 121.761 184.263 128.695 189.581 132.131C196.228 136.427 200.789 149.574 192.187 149.053C196.315 150.572 204.751 150.849 205.481 139.811C206.394 126.014 214.213 134.865 221.642 127.576C229.071 120.286 225.903 115.366 224.379 110.133C217.267 94.5612 231.491 100.073 236.293 88.8371C240.135 79.8482 234.692 77.7571 231.491 77.8351C232.896 77.9522 235.239 79.1607 233.365 83.0585C231.491 86.9563 225.464 84.6826 222.685 83.0585C214.727 76.7621 215.517 66.267 217.472 60.1491C219.427 54.0313 217.863 44.7894 209.652 38.4112C201.441 32.033 196.358 23.9627 195.706 17.194C195.055 10.4253 186.323 -0.638845 176.678 -2.85168C167.034 -5.06452 160.908 -14.6969 150.612 -17.8209C142.375 -20.3201 130.816 -15.0231 125.95 -14.676C122.525 -15.4569 113.909 -16.1171 105.48 -12.9937C94.0341 -8.95933 90.7823 -1.67138 89.0914 4.05486C87.4005 9.7811 82.1977 11.7332 76.9949 13.8155C71.7921 15.8978 65.1585 20.3226 68.5404 28.9119C71.9222 37.5013 69.8411 40.4946 63.2075 44.9194C56.5739 49.3442 52.2816 55.7212 55.4033 63.1393C58.525 70.5574 57.4843 79.0166 49.0298 83.3113C40.5752 87.6059 40.6002 100.096 51.266 101.657C61.9317 103.219 62.0368 114.545 54.6228 117.799C48.6916 120.402 47.8707 117.792 47.5238 115.233C44.0119 124.342 51.2408 126.258 60.866 127.56C70.4912 128.861 58.7849 140.183 67.3695 146.821C75.9541 153.458 84.2786 139.663 90.1318 143.957C94.8143 147.393 90.1751 149.293 87.2702 149.814C91.4325 160.616 107.951 152.156 109.642 136.669C111.333 121.183 92.7332 117.018 100.667 110.641C108.602 104.264 115.584 94.8696 108.684 85.5074C104.338 79.6095 96.1146 62.5926 107.281 55.5482C120.236 47.3752 117.837 35.5492 117.317 31.5148C116.796 27.4804 115.756 18.1102 132.145 15.247Z" fill="#D9B6FF"/>
<path d="M182.592 42.6748C179.434 33.4295 174.807 28.9116 167.654 25.7883C160.5 22.6649 160.571 20.3425 157.449 12.0134C154.952 5.35013 146.681 3.01535 143.299 2.8852C145.467 7.00636 145.256 12.9563 132.145 15.2467C115.756 18.1099 116.796 27.4801 117.317 31.5145C117.837 35.5489 120.237 47.3749 107.281 55.5478C96.1146 62.5922 104.338 79.6092 108.684 85.507C115.584 94.8693 108.602 104.264 100.667 110.641C92.7332 117.018 111.333 121.182 109.642 136.669C107.951 152.156 91.4325 160.615 87.2703 149.813C90.1752 149.293 94.8143 147.393 90.1318 143.957C84.2787 139.662 75.9542 153.457 67.3696 146.82C58.7849 140.183 70.4912 128.861 60.8661 127.559C51.2409 126.258 44.012 124.342 47.5239 115.232C47.8708 117.792 48.6916 120.401 54.6228 117.799C62.0368 114.545 61.9317 103.219 51.266 101.657C40.6003 100.095 40.5753 87.6056 49.0298 83.3109C57.4844 79.0163 58.525 70.557 55.4033 63.139C52.2817 55.7209 56.574 49.3439 63.2075 44.9191C69.8411 40.4943 71.9222 37.501 68.5404 28.9116C65.1586 20.3223 71.7922 15.8975 76.995 13.8152C82.1978 11.7329 87.4006 9.78079 89.0915 4.05455C90.7824 -1.67169 94.0341 -8.95964 105.48 -12.994C113.909 -16.1174 122.866 -15.3366 126.291 -14.5557" stroke="#271A58"/>
<path d="M-24.5299 115.308L-54.841 174.322C-55.6733 192.355 -49.1768 207.421 -45.8246 212.699C-31.2133 211.497 -14.768 201.333 -8.37175 196.4L12.551 124.038C28.0533 126.167 54.1851 98.4663 50.6876 87.6246C47.9192 79.0432 22.1479 108.539 28.0533 87.6246C38.6974 67.5328 46.9806 49.551 40.8767 47.808C35.9936 46.4136 23.0802 68.061 18.3235 77.5404C22.8602 65.2783 30.6847 39.7952 24.8474 38.2667C16.749 36.1461 9.82617 63.6882 6.19682 75.8891C7.32412 64.1775 12.1156 36.1566 4.23837 38.2667C-0.797707 39.6158 -6.46314 67.9915 -7.92867 77.5404C-7.92867 67.3493 -2.43823 49.7346 -8.85984 49.7346C-17.1035 49.7346 -30.4957 103.652 -24.5299 115.308Z" fill="#E8D4FF"/>
<path d="M12.4356 124.154L-8.60266 196.285" stroke="#271A58"/>
<path d="M152.074 48.3232C152.252 46.6423 153.532 43.0283 157.232 42.0198C160.931 41.0113 163.812 42.1399 164.79 42.8302" stroke="#271A58" stroke-linecap="round"/>
<path d="M126.644 57.5707C126.815 55.8898 128.049 52.2759 131.613 51.2674C135.178 50.2588 137.954 51.3874 138.897 52.0778" stroke="#271A58" stroke-linecap="round"/>
<path d="M159.565 86.0073C158.117 87.7475 156.895 88.3178 153.693 88.3371C153.693 88.3371 156.746 94.5851 158.508 93.5129C160.269 92.4406 159.565 86.0073 159.565 86.0073Z" fill="#D9B6FF" stroke="#271A58"/>
<path d="M162.709 75.6036C153.638 81.5821 147.627 82.0256 143.289 82.11C144.724 83.4316 149 85.8309 154.626 84.8549C160.253 83.879 162.359 78.2807 162.709 75.6036Z" fill="#271A58" stroke="#271A58"/>
<path d="M151.268 70.8173C139.653 68.4267 133.987 76.9366 132.655 81.3834C145.611 79.1409 157.571 75.5695 168.951 68.7899C165.65 66.3181 162.31 65.9921 159.272 66.6554C158.647 67.6803 156.172 69.9476 151.268 70.8173Z" fill="#D9B6FF"/>
<path d="M151.268 70.8173C139.653 68.4267 133.987 76.9366 132.655 81.3834C145.611 79.1409 157.571 75.5695 168.951 68.7899C165.65 66.3181 162.31 65.9921 159.272 66.6554" stroke="#271A58"/>
<path d="M-54.8411 174.322L-24.6136 115.225C-30.5793 103.568 -17.1036 49.7346 -8.85998 49.7346C-2.43838 49.7346 -7.92881 67.3493 -7.92881 77.5404C-6.46328 67.9915 -0.797851 39.6158 4.23823 38.2667C12.1155 36.1566 7.32397 64.1775 6.19667 75.8891C9.82603 63.6882 16.7489 36.1461 24.8473 38.2667C30.6846 39.7952 22.8601 65.2783 18.3234 77.5404C23.08 68.061 35.9935 46.4136 40.8766 47.808C46.9805 49.551 38.6973 67.5328 28.0532 87.6246C26.2246 91.7981 25.5819 99.434 35.1585 92.7304C70.1336 68.2478 42.0136 122.809 12.3546 124.348" stroke="#271A58"/>
<path d="M160.181 54.0738C161.566 53.6293 161.848 50.6502 160.811 47.4196C159.774 44.1891 157.811 41.9306 156.426 42.375C155.041 42.8195 154.759 45.7987 155.796 49.0292C156.833 52.2597 158.796 54.5183 160.181 54.0738Z" fill="#271A58"/>
<path d="M134.688 63.1424C136.073 62.6979 136.355 59.7188 135.318 56.4882C134.281 53.2577 132.318 50.9992 130.933 51.4436C129.548 51.8881 129.267 54.8673 130.304 58.0978C131.34 61.3283 133.304 63.5869 134.688 63.1424Z" fill="#271A58"/>
<path d="M147.913 57.3683C151.852 57.1608 159.858 57.9906 160.369 62.9694C160.88 67.9482 154.478 70.2301 151.214 70.7488" stroke="#271A58" stroke-linecap="round"/>
<path d="M4.92163 149.931C9.32466 142.827 29.2084 121.674 59.3669 107.392" stroke="#271A58"/>
<path d="M182.562 42.7747C189.575 63.1655 191.912 106.525 169.473 115.901C141.425 127.619 114.896 97.9706 110.923 89.533" stroke="#271A58"/>
<path opacity="0.3" d="M126.619 106.999C137.742 115.71 153.357 122.634 169.473 115.901C171.62 115.004 173.54 113.796 175.251 112.327C154.897 134.365 134.349 117.958 126.619 106.999Z" fill="#D9B6FF"/>
<path opacity="0.3" d="M132.144 15.2469C145.255 12.9564 145.467 7.00653 143.299 2.88538C145.732 7.43821 146.908 17.1278 132.144 19.4634C113.69 22.383 128.451 39.8168 117.316 52.7462C106.182 65.6757 99.2576 62.3797 108.684 85.5072C104.338 79.6094 96.1144 62.5924 107.281 55.548C120.236 47.375 117.837 35.549 117.316 31.5146C116.796 27.4803 115.756 18.11 132.144 15.2469Z" fill="#D9B6FF"/>
<path d="M125.719 -14.6971C130.585 -15.0442 142.375 -20.3203 150.612 -17.8211C160.908 -14.6971 167.034 -5.06474 176.678 -2.8519C186.323 -0.639064 195.055 10.4251 195.707 17.1938C196.358 23.9625 201.441 32.0328 209.652 38.411C217.863 44.7892 219.427 54.0311 217.472 60.1489C215.517 66.2667 214.727 76.7619 222.685 83.0583C225.464 84.6824 231.491 86.9561 233.365 83.0583C235.239 79.1605 232.897 77.9519 231.491 77.8349C234.693 77.7569 240.136 79.848 236.294 88.8368C231.491 100.073 217.268 94.561 224.379 110.133C225.904 115.366 229.071 120.286 221.642 127.575C214.214 134.865 206.394 126.013 205.481 139.811C204.752 150.849 196.315 150.572 192.188 149.053C200.789 149.574 196.228 136.427 189.581 132.131C184.263 128.695 184.411 121.761 185.15 118.724C187.176 111.851 184.091 105.065 182.295 102.531" stroke="#271A58"/>
<path d="M143.521 3.00989C141.975 -0.501478 133.905 -11.6358 125.719 -14.7917" stroke="#271A58"/>
<path d="M150.225 40.6939C150.974 37.4251 154.658 31.2212 163.403 32.5565" stroke="#271A58" stroke-linecap="round"/>
<path d="M137.948 46.8313C134.771 44.1344 127.04 40.7392 121.536 48.7337" stroke="#271A58" stroke-linecap="round"/>
<path d="M175.309 112.363C172.226 119.789 167.333 127.424 158.663 135.944C147.104 130.708 133.14 121.68 126.297 106.699" stroke="#271A58"/>
<path d="M103.596 107.967C112.764 126.432 136.455 147.364 149.912 151.677L158.703 135.862L172.796 149.368C176.469 144.55 182.614 136.537 186.609 129.155" stroke="#271A58"/>
<path d="M158.779 136.176L158.779 157.907" stroke="#271A58"/>
<path d="M6.91771 69.0957C1.72495 70.863 -4.10068 69.9423 -6.43077 69.2626L-7.26294 74.2756C-2.51955 75.805 4.55989 75.3266 6.50163 74.4486L6.91771 69.0957Z" fill="#D9B6FF" stroke="#271A58"/>
<path d="M127.536 1.86361C119.112 1.7859 102.947 6.47963 105.683 25.8762C109.103 50.1219 78.9275 38.2574 89.0013 67.2183C101.928 104.38 71.5657 96.4299 86.5793 115.391C100.094 132.46 88.0249 135.43 84.9109 136.829" stroke="#271A58" stroke-linecap="round"/>
<path d="M207.867 121.731C210.119 119.562 213.272 113.69 207.867 107.55C201.11 99.876 195.521 101.044 196.772 87.8641C198.023 74.6845 199.775 69.8464 193.686 61.1711" stroke="#271A58" stroke-linecap="round"/>
<path d="M222.631 105.131C244.18 113.918 290.881 142.201 304.962 185.711C322.32 239.347 304.795 266.207 268.426 272.63" stroke="#271A58"/>
<rect opacity="0.8" y="0.509277" width="250" height="150" fill="url(#paint0_linear_1_1112)"/>
<path d="M28.2679 53.3253V52.5093H30.6679V70.5093H28.2679V57.8853H25.4839V55.8693H26.0599C27.6199 55.8693 28.2679 55.1253 28.2679 53.3253ZM38.9336 70.7493C35.7896 70.7493 33.8696 68.8053 33.8696 64.8453V58.1733C33.8696 54.2373 35.7896 52.2693 38.9336 52.2693C42.1016 52.2693 43.9976 54.2373 43.9976 58.1733V64.8453C43.9976 68.8053 42.1016 70.7493 38.9336 70.7493ZM38.9336 68.5413C40.5896 68.5413 41.5976 67.5573 41.5976 64.8453V58.1733C41.5976 55.4853 40.5896 54.4773 38.9336 54.4773C37.2776 54.4773 36.2696 55.4853 36.2696 58.1733V64.8453C36.2696 67.5573 37.2536 68.5413 38.9336 68.5413ZM52.0289 70.7493C48.8849 70.7493 46.9649 68.8053 46.9649 64.8453V58.1733C46.9649 54.2373 48.8849 52.2693 52.0289 52.2693C55.1969 52.2693 57.0929 54.2373 57.0929 58.1733V64.8453C57.0929 68.8053 55.1969 70.7493 52.0289 70.7493ZM52.0289 68.5413C53.6849 68.5413 54.6929 67.5573 54.6929 64.8453V58.1733C54.6929 55.4853 53.6849 54.4773 52.0289 54.4773C50.3729 54.4773 49.3649 55.4853 49.3649 58.1733V64.8453C49.3649 67.5573 50.3489 68.5413 52.0289 68.5413ZM70.6755 70.5093H68.2755V60.7173H64.3875V58.5093H74.5635V60.7173H70.6755V70.5093ZM80.0093 70.7493C77.8733 70.7493 75.9293 69.7173 75.9293 67.3413C75.9293 62.1573 84.0173 64.7493 84.0173 62.0133C84.0173 60.8373 82.8893 60.1893 81.4253 60.1893C79.8653 60.1893 78.7853 60.9813 78.7853 62.5413H76.2893C76.2893 59.4453 78.7853 58.2693 81.4253 58.2693C84.0173 58.2693 86.4173 59.3253 86.4173 62.1093V70.5093H84.0653V68.4933C83.2733 70.0773 81.7373 70.7493 80.0093 70.7493ZM78.3773 67.1973C78.3773 68.2293 79.2653 68.7333 80.4893 68.7333C82.3373 68.7333 84.0653 67.6533 84.0653 65.5653V64.7013C82.0253 65.6853 78.3773 65.1813 78.3773 67.1973ZM92.0487 70.5093H89.6487V58.5093H92.0487V63.3573H97.8087V58.5093H100.209V70.5093H97.8087V65.5413H92.0487V70.5093ZM106.058 58.5093V68.3013H111.482V58.5093H113.882V68.3013H115.562V73.7493H113.354V70.5093H103.658V58.5093H106.058ZM128.774 65.3253H119.366C119.654 67.4133 120.998 68.6373 123.014 68.6373C124.478 68.6373 125.438 67.9893 125.918 66.9093H128.51C127.766 69.3813 125.678 70.7493 122.918 70.7493C119.51 70.7493 117.014 68.1813 117.014 64.5093C117.014 60.8373 119.51 58.2693 122.918 58.2693C126.326 58.2693 128.822 60.8373 128.822 64.5093C128.822 64.7973 128.798 65.0613 128.774 65.3253ZM122.918 60.3813C120.974 60.3813 119.678 61.5813 119.39 63.5973H126.446C126.158 61.5813 124.838 60.3813 122.918 60.3813ZM131.396 70.5093V58.5093H137.348C139.556 58.5093 141.068 59.5413 141.068 61.6293C141.068 62.9013 140.444 63.7173 139.412 64.1493C140.732 64.5813 141.572 65.5413 141.572 67.0533C141.572 69.3573 140.036 70.5093 137.54 70.5093H131.396ZM136.652 60.3333H133.7V63.4533H136.652C138.14 63.4533 138.764 62.9013 138.764 61.8933C138.764 60.8133 138.14 60.3333 136.652 60.3333ZM137.132 65.2773H133.7V68.6853H137.132C138.476 68.6853 139.172 68.0853 139.172 66.9813C139.172 65.8773 138.476 65.2773 137.132 65.2773ZM147.947 70.7493C145.811 70.7493 143.867 69.7173 143.867 67.3413C143.867 62.1573 151.955 64.7493 151.955 62.0133C151.955 60.8373 150.827 60.1893 149.363 60.1893C147.803 60.1893 146.723 60.9813 146.723 62.5413H144.227C144.227 59.4453 146.723 58.2693 149.363 58.2693C151.955 58.2693 154.355 59.3253 154.355 62.1093V70.5093H152.003V68.4933C151.211 70.0773 149.675 70.7493 147.947 70.7493ZM146.315 67.1973C146.315 68.2293 147.203 68.7333 148.427 68.7333C150.275 68.7333 152.003 67.6533 152.003 65.5653V64.7013C149.963 65.6853 146.315 65.1813 146.315 67.1973ZM167.378 70.5093H164.978V60.7173H160.682C160.634 63.5253 160.514 65.4213 160.322 66.7173C159.818 69.7173 158.762 70.5093 156.842 70.5093H156.41V68.3013H156.602C157.25 68.3013 157.778 67.9173 158.018 67.0053C158.306 65.9733 158.474 63.9093 158.498 58.5093H167.378V70.5093ZM180.494 66.4773C180.494 68.8533 178.91 70.5093 175.91 70.5093H170.822V58.5093H173.222V62.4693H175.886C178.79 62.4693 180.494 64.1013 180.494 66.4773ZM175.694 64.4853H173.222V68.4933H175.694C177.326 68.4933 178.094 67.7493 178.094 66.4533C178.094 65.1333 177.326 64.4853 175.694 64.4853ZM185.356 70.5093H182.956V58.5093H185.356V63.3573H191.116V58.5093H193.516V70.5093H191.116V65.5413H185.356V70.5093ZM206.638 66.4773C206.638 68.8533 205.054 70.5093 202.054 70.5093H196.966V58.5093H199.366V62.4693H202.03C204.934 62.4693 206.638 64.1013 206.638 66.4773ZM210.862 70.5093H208.462V58.5093H210.862V70.5093ZM201.838 64.4853H199.366V68.4933H201.838C203.47 68.4933 204.238 67.7493 204.238 66.4533C204.238 65.1333 203.47 64.4853 201.838 64.4853ZM215.431 70.5093H212.623L217.327 64.2933L212.863 58.5093H215.671L218.839 62.5893L221.863 58.5093H224.671L220.207 64.3653L224.911 70.5093H222.103L218.647 66.0693L215.431 70.5093ZM95.6313 98.5093H92.8233L97.5273 92.2933L93.0633 86.5093H95.8713L99.0393 90.5893L102.063 86.5093H104.871L100.407 92.3653L105.111 98.5093H102.303L98.8473 94.0693L95.6313 98.5093ZM117.72 98.5093H115.416V88.9333L109.92 98.5093H106.872V86.5093H109.176V96.0853L114.672 86.5093H117.72V98.5093ZM126.107 98.5093H123.707V88.7173H119.819V86.5093H129.995V88.7173H126.107V98.5093ZM137.122 98.7493C133.642 98.7493 131.05 96.1813 131.05 92.5093C131.05 88.8373 133.642 86.2693 137.122 86.2693C140.602 86.2693 143.194 88.8373 143.194 92.5093C143.194 96.1813 140.602 98.7493 137.122 98.7493ZM137.122 96.5413C139.21 96.5413 140.794 94.9333 140.794 92.5093C140.794 90.0853 139.21 88.4773 137.122 88.4773C135.034 88.4773 133.45 90.0853 133.45 92.5093C133.45 94.9333 135.034 96.5413 137.122 96.5413ZM145.76 98.5093V86.5093H151.712C153.92 86.5093 155.432 87.5413 155.432 89.6293C155.432 90.9013 154.808 91.7173 153.776 92.1493C155.096 92.5813 155.936 93.5413 155.936 95.0533C155.936 97.3573 154.4 98.5093 151.904 98.5093H145.76ZM151.016 88.3333H148.064V91.4533H151.016C152.504 91.4533 153.128 90.9013 153.128 89.8933C153.128 88.8133 152.504 88.3333 151.016 88.3333ZM151.496 93.2773H148.064V96.6853H151.496C152.84 96.6853 153.536 96.0853 153.536 94.9813C153.536 93.8773 152.84 93.2773 151.496 93.2773Z" fill="white"/>
</g>
<defs>
<linearGradient id="paint0_linear_1_1112" x1="125" y1="0.509277" x2="125" y2="150.509" gradientUnits="userSpaceOnUse">
<stop stop-color="#271A58"/>
<stop offset="1" stop-color="#7868CC"/>
</linearGradient>
<clipPath id="clip0_1_1112">
<rect width="250" height="150" fill="white" transform="translate(0 0.509277)"/>
</clipPath>
</defs>
</svg>
