<svg width="250" height="151" viewBox="0 0 250 151" fill="none" xmlns="http://www.w3.org/2000/svg">
<g opacity="0.8" clip-path="url(#clip0_1_1168)">
<rect width="250" height="150" transform="translate(0 0.509277)" fill="url(#paint0_linear_1_1168)"/>
<path d="M-0.63809 -60.7617C23.2517 -42.3466 59.5842 -14.4752 59.5842 -14.4752C62.5704 -16.6224 75.8867 -16.6224 75.8867 -16.6224C75.8867 -16.6224 86.9953 -18.8853 91.6431 -17.7745C96.3047 -16.6673 102.074 -12.9523 104.253 -9.33352C106.441 -5.70972 107.703 -1.44843 107.703 -1.44843L108.647 4.5999C108.647 4.5999 115.516 11.6248 116.007 14.1907C116.507 16.7616 117.214 21.0162 117.214 21.0162L117.032 24.771L116.378 27.5466L118.297 33.6812C118.297 33.6812 119.333 39.3071 118.097 42.6872C116.862 46.0672 113.774 51.2898 112.76 52.3634C111.746 53.437 106.319 57.3825 104.846 58.4238C103.374 59.465 96.4446 61.0626 96.4446 61.0626L90.5994 61.8701L86.0849 61.8608C86.0849 61.8608 82.5286 76.5787 80.9345 78.8018C79.3353 81.0336 75.6586 81.5132 75.6586 81.5132C75.6586 81.5132 68.29 79.0796 66.2425 77.2752C64.195 75.4707 53.2489 63.7343 53.2489 63.7343L47.2667 54.6235L38.1711 39.6288L-16.2396 1.99904L-54.8878 -24.9269L-0.63809 -60.7617Z" fill="#E9D4FF"/>
<path d="M99.6852 80.9127L125.1 49.8567L101.921 33.6288L97.362 33.9143L92.884 36.7255L89.0377 40.3249C88.3627 47.2683 86.4417 62.5652 84.1573 68.2055L99.6852 80.9127Z" fill="#AD61FF"/>
<path d="M-55.2123 -24.7935C-55.2123 -24.7935 37.9955 38.7368 38.4943 39.6298C41.1759 44.4306 43.5629 48.747 45.3792 52.1018C56.427 71.9652 75.1201 88.412 80.8135 78.5213C86.507 68.6305 95.9151 17.1928 81.6194 21.4486C67.3237 25.7043 66.9995 55.3167 66.9995 55.3167" stroke="#271A58" stroke-miterlimit="10" stroke-linecap="round" stroke-linejoin="round"/>
<path d="M71.8937 30.3576C71.8937 30.3576 67.5442 13.9856 52.1894 8.00178" stroke="#271A58" stroke-miterlimit="10" stroke-linecap="round" stroke-linejoin="round"/>
<path d="M69.7117 24.4795C69.7117 24.4795 68.7907 14.9479 80.136 8.68307C98.1898 -1.27793 121.552 25.6804 118.111 40.8423C117.84 42.0354 117.514 43.1624 117.138 44.2271" stroke="#271A58" stroke-miterlimit="10" stroke-linecap="round" stroke-linejoin="round"/>
<path d="M89.1279 40.2968C89.6988 40.0304 95.3127 29.4154 95.3127 29.4154" stroke="#271A58" stroke-miterlimit="10" stroke-linecap="round" stroke-linejoin="round"/>
<path d="M116.319 27.5278C116.319 27.5278 122.608 9.38436 99.6041 -0.593339C77.216 -10.2984 64.9569 11.4603 63.7386 15.5208" stroke="#271A58" stroke-miterlimit="10" stroke-linecap="round" stroke-linejoin="round"/>
<path d="M108.709 4.59733C108.709 4.59733 107.796 -12.8249 92.7558 -17.1975C77.7152 -21.5702 65.062 -11.0625 63.4268 -5.4656C61.7916 0.131287 68.0984 7.81466 68.0984 7.81466" stroke="#271A58" stroke-miterlimit="10" stroke-linecap="round" stroke-linejoin="round"/>
<path d="M84.8133 68.0989L99.2166 80.7047L124.79 49.7323L102.947 34.0996C101.306 32.9124 96.2259 32.4954 89.0383 40.3249" stroke="#271A58" stroke-linecap="round"/>
<ellipse cx="112.292" cy="65.3691" rx="7.2275" ry="20.1278" transform="rotate(40.9498 112.292 65.3691)" fill="#9A48F1" stroke="#271A58" stroke-linecap="round"/>
<path d="M115.545 61.5919C114.198 60.1999 117.705 56.5267 118.877 57.4235L130.995 67.5513C131.78 68.5805 129.477 71.9641 128.051 71.5872L115.545 61.5919Z" fill="#E9D4FF" stroke="#271A58" stroke-linecap="round"/>
<path d="M105.53 73.2714C104.182 71.8795 107.69 68.2063 108.862 69.1031L120.98 79.2309C121.765 80.26 119.462 83.6436 118.035 83.2668L105.53 73.2714Z" fill="#E9D4FF" stroke="#271A58" stroke-linecap="round"/>
<path d="M63.6129 15.368L65.8819 11.1081C50.453 -1.33407 19.7914 -3.89323 -17.5546 12.6409C-54.5625 29.0254 -89.0582 5.17553 -104.155 -13.7371L-109.292 -10.6517C-92.4885 7.8584 -57.6397 36.5156 -15.0659 17.1205C29.8433 -3.33856 55.4699 7.15935 63.6129 15.368Z" fill="#AD61FF" stroke="#271A58" stroke-linecap="round"/>
<path d="M147.364 174.291L156.413 150.189C156.413 150.189 141.109 137.171 138.212 133.556C135.314 129.941 131.36 121.584 131.589 118.084C131.819 114.584 134.573 109.795 137.197 108.452C139.822 107.109 145.339 104.6 145.339 104.6L152.334 90.109C152.334 90.109 161.03 79.5548 164.415 77.9189C167.799 76.2935 173.51 74.7525 177.174 75.2859C180.839 75.8192 185.132 79.4314 185.132 79.4314L189.145 84.0353C189.145 84.0353 193.674 74.5887 201.356 73.7016C209.039 72.8145 212.582 81.5647 212.582 81.5647L215.916 89.484L216.728 90.8147L224.625 89.29C224.625 89.29 231.371 88.9648 233.11 96.0674C234.849 103.17 233.942 108.292 233.942 108.292C233.942 108.292 232.37 119.156 232.021 120.365C231.672 121.574 228.594 127.948 228.594 127.948L223.648 133.317L221.902 133.884L217.089 144.319L211.943 150.252L208.061 152.496L203.669 153.952L193.147 182.627C193.147 182.627 180.221 182.006 175.373 181.572C170.524 181.138 160.478 178.764 160.478 178.764L147.364 174.291Z" fill="#E9D4FF"/>
<path d="M153.709 72.0766L167.569 86.7378L168.119 103.146C161.743 101.872 146.418 101.325 136.131 109.33L127.356 102.051L153.709 72.0766Z" fill="#AD61FF"/>
<path d="M147.12 173.876L156.251 149.504C156.251 149.504 124.142 128.276 133.033 113.045C141.925 97.8142 185.322 101.517 184.307 111.194C183.292 120.872 149.736 121.606 149.736 121.606" stroke="#271A58" stroke-miterlimit="10" stroke-linecap="round" stroke-linejoin="round"/>
<path d="M167.04 120.215C171.086 130.021 189.756 133.097 193.377 113.449C197.677 90.1568 185.66 71.422 169.055 76.2019C166.222 77.0169 163.647 78.4202 161.328 80.1787" stroke="#271A58" stroke-miterlimit="10" stroke-linecap="round" stroke-linejoin="round"/>
<path d="M167.568 86.7377L168.101 103.141" stroke="#271A58" stroke-miterlimit="10" stroke-linecap="round" stroke-linejoin="round"/>
<path d="M189.069 83.8475C189.524 83.314 194.518 71.136 204.595 73.9892C217.706 77.6995 224.959 110.775 209.2 126.653C197.178 138.76 186.129 126.344 186.129 126.344" stroke="#271A58" stroke-miterlimit="10" stroke-linecap="round" stroke-linejoin="round"/>
<path d="M216.81 91.1987C216.81 91.1987 226.703 87.102 230.297 91.0693C237.334 98.8302 234.289 130.099 219.76 134.895C209.54 138.264 207.209 128.554 207.209 128.554" stroke="#271A58" stroke-miterlimit="10" stroke-linecap="round" stroke-linejoin="round"/>
<path d="M221.759 134.342C221.759 134.342 216.046 152.687 203.904 153.419L192.936 182.469" stroke="#271A58" stroke-miterlimit="10" stroke-linecap="round" stroke-linejoin="round"/>
<path d="M167.569 86.738L153.709 72.0768L127.356 102.051L136.131 109.33" stroke="#271A58" stroke-linecap="round"/>
<ellipse cx="7.2275" cy="20.1278" rx="7.2275" ry="20.1278" transform="matrix(-0.770943 -0.636904 -0.636904 0.770943 158.737 76.0673)" fill="#9A48F1" stroke="#271A58" stroke-linecap="round"/>
<mask id="mask0_1_1168" style="mask-type:alpha" maskUnits="userSpaceOnUse" x="125" y="70" width="30" height="34">
<ellipse cx="7.2275" cy="20.1278" rx="7.2275" ry="20.1278" transform="matrix(-0.770943 -0.636904 -0.636904 0.770943 158.737 76.0673)" fill="#9A48F1" stroke="#271A58" stroke-linecap="round"/>
</mask>
<g mask="url(#mask0_1_1168)">
<ellipse cx="1.13932" cy="3.17287" rx="1.13932" ry="3.17287" transform="matrix(-0.770943 -0.636904 -0.636904 0.770943 151.424 84.2926)" fill="#271A58" stroke="#271A58" stroke-linecap="round"/>
<ellipse cx="1.13932" cy="3.17287" rx="1.13932" ry="3.17287" transform="matrix(-0.770943 -0.636904 -0.636904 0.770943 143.352 94.4556)" fill="#271A58" stroke="#271A58" stroke-linecap="round"/>
</g>
<path d="M154.195 75.6609C150.346 77.0749 145.233 81.0991 140.612 86.6924C135.816 92.4984 132.78 98.5055 132.277 102.567" stroke="#271A58" stroke-linecap="round"/>
<path d="M364.331 170.342C351.301 135.658 270.797 122.516 231.496 120.28L229.241 126.154C232.553 126.302 250.02 126.142 288.421 134.702C327.977 143.519 352.578 157.25 359.363 173.056L364.331 170.342Z" fill="#AD61FF" stroke="#271A58" stroke-linecap="round"/>
<path d="M170.746 20.9955L135.907 60.3141L166.787 34.1695L166.787 47.424L206.581 13.53L174.389 34.1695L170.746 20.9955Z" fill="#F9EBFF" stroke="#271A58" stroke-linecap="round"/>
<path d="M94.2533 114.347L86.1352 149.614L96.579 127.369L100.945 137.136L115.445 103.117L101.434 125.199L94.2533 114.347Z" fill="#F9EBFF" stroke="#271A58" stroke-linecap="round"/>
<path d="M53.0607 96.0378L15.7946 130.743L45.1103 113.479L45.3952 125.652L103.61 93.1629L53.4644 113.283L53.0607 96.0378Z" fill="#F9EBFF" stroke="#271A58" stroke-linecap="round"/>
<rect opacity="0.8" y="0.509277" width="250" height="150" fill="url(#paint1_linear_1_1168)"/>
<path d="M68.2453 66.5093H71.7493V84.5093H69.5413V68.7893L64.5973 84.5093H61.0933V66.5093H63.3013V82.2293L68.2453 66.5093ZM77.5765 84.5093H75.1765V72.5093H77.5765V77.3573H83.3365V72.5093H85.7365V84.5093H83.3365V79.5413H77.5765V84.5093ZM87.8218 82.3013H88.9978C89.5978 81.1733 90.0778 79.5413 90.1258 72.5093H99.3658V82.3013H101.046V87.7493H98.8378V84.5093H90.0298V87.7493H87.8218V82.3013ZM92.0458 79.4453C91.8538 80.8373 91.6618 81.7013 91.4218 82.3013H96.9658V74.7173H92.3098C92.2858 76.8773 92.1898 78.3653 92.0458 79.4453ZM114.214 84.5093H111.91V74.9333L106.414 84.5093H103.366V72.5093H105.67V82.0853L111.166 72.5093H114.214V84.5093ZM122.965 79.0133H117.157V76.8053H122.965V79.0133ZM128.837 77.5013H130.733C132.053 77.5013 132.749 76.9493 132.749 75.8933C132.749 74.8853 131.957 74.1893 130.301 74.1893C128.549 74.1893 127.565 75.0533 127.565 76.5893H125.165C125.165 74.2373 126.917 72.2693 130.301 72.2693C133.493 72.2693 135.053 73.8293 135.053 75.7013C135.053 76.8773 134.453 77.9093 133.277 78.4133C134.621 78.8693 135.341 79.7813 135.341 81.1253C135.341 83.3813 133.589 84.7493 130.301 84.7493C126.941 84.7493 124.973 83.1173 124.973 80.2613H127.373C127.373 81.8933 128.357 82.8533 130.325 82.8533C132.197 82.8533 132.941 82.0853 132.941 81.0533C132.941 79.9253 132.101 79.3013 130.733 79.3013H128.837V77.5013ZM141.314 84.7493C139.178 84.7493 137.234 83.7173 137.234 81.3413C137.234 76.1573 145.322 78.7493 145.322 76.0133C145.322 74.8373 144.194 74.1893 142.73 74.1893C141.17 74.1893 140.09 74.9813 140.09 76.5413H137.594C137.594 73.4453 140.09 72.2693 142.73 72.2693C145.322 72.2693 147.722 73.3253 147.722 76.1093V84.5093H145.37V82.4933C144.578 84.0773 143.042 84.7493 141.314 84.7493ZM139.682 81.1973C139.682 82.2293 140.57 82.7333 141.794 82.7333C143.642 82.7333 145.37 81.6533 145.37 79.5653V78.7013C143.33 79.6853 139.682 79.1813 139.682 81.1973ZM153.333 90.5093H150.933V72.5093H153.333V74.3093C154.269 73.0373 155.661 72.2693 157.269 72.2693C160.557 72.2693 163.029 74.8373 163.029 78.5093C163.029 82.1813 160.557 84.7493 157.269 84.7493C155.661 84.7493 154.269 83.9813 153.333 82.7093V90.5093ZM156.981 82.5413C159.069 82.5413 160.629 80.9333 160.629 78.5093C160.629 76.0853 159.069 74.4773 156.981 74.4773C154.893 74.4773 153.333 76.0853 153.333 78.5093C153.333 80.9333 154.893 82.5413 156.981 82.5413ZM165.132 76.1573C165.132 73.5413 167.148 72.5093 169.548 72.5093H174.708V84.5093H172.308V79.2533H172.284L167.1 84.5093H164.292L168.996 79.8533C166.98 79.7333 165.132 78.4853 165.132 76.1573ZM169.956 78.1493H172.308V74.3333H169.956C168.444 74.3333 167.532 74.9573 167.532 76.1813C167.532 77.5493 168.444 78.1493 169.956 78.1493ZM176.794 82.3013H177.97C178.57 81.1733 179.05 79.5413 179.098 72.5093H188.338V82.3013H190.018V87.7493H187.81V84.5093H179.002V87.7493H176.794V82.3013ZM181.018 79.4453C180.826 80.8373 180.634 81.7013 180.394 82.3013H185.938V74.7173H181.282C181.258 76.8773 181.162 78.3653 181.018 79.4453Z" fill="white"/>
</g>
<defs>
<linearGradient id="paint0_linear_1_1168" x1="125" y1="0" x2="125" y2="150" gradientUnits="userSpaceOnUse">
<stop stop-color="#271A58"/>
<stop offset="1" stop-color="#7868CC"/>
</linearGradient>
<linearGradient id="paint1_linear_1_1168" x1="125" y1="0.509277" x2="125" y2="150.509" gradientUnits="userSpaceOnUse">
<stop stop-color="#271A58"/>
<stop offset="1" stop-color="#7868CC"/>
</linearGradient>
<clipPath id="clip0_1_1168">
<rect width="250" height="150" fill="white" transform="translate(0 0.509277)"/>
</clipPath>
</defs>
</svg>
